<?xml version="1.0" encoding="UTF-8" standalone="no"?>
<svg
   width="290"
   height="205.45212764047824"
   viewBox="0 0 290 205.45212764047824"
   class="css-1j8o68f"
   version="1.1"
   id="svg16"
   sodipodi:docname="logo.svg"
   inkscape:version="1.1.2 (1:1.1+202202050950+0a00cf5339)"
   xmlns:inkscape="http://www.inkscape.org/namespaces/inkscape"
   xmlns:sodipodi="http://sodipodi.sourceforge.net/DTD/sodipodi-0.dtd"
   xmlns="http://www.w3.org/2000/svg"
   xmlns:svg="http://www.w3.org/2000/svg">

  <defs
     id="SvgjsDefs2230" />
  <g
     id="SvgjsG2231"
     featurekey="symbolFeature-0"
     transform="matrix(2.5103938,0,0,2.4770281,83.215407,-16.863165)"
     fill="#ffffff">
    <g
       id="g7">
      <polygon
         fill="#ffffff"
         points="17.653,8.212 1.012,24.792 17.647,41.428 19.94,39.135 5.603,24.794 19.937,10.508 "
         id="polygon3" />
      <polygon
         fill="#ffffff"
         points="44.046,24.794 29.711,39.135 32.004,41.428 48.637,24.792 32.001,8.212 29.714,10.508 "
         id="polygon5" />
    </g>
  </g>
  <g
     id="SvgjsG2232"
     featurekey="nameFeature-0"
     transform="matrix(1.8920838,0,0,1.8669361,1.069358,67.82876)"
     fill="#ffffff">
    <path
       d="m 13.28,24.72 h -2.36 v 12.84 c 0,1.2 1.2,2.24 2.32,2.44 h -9 C 5.28,39.8 6.56,38.76 6.56,37.6 V 24.72 h -2.4 c -0.92,0 -3,0.36 -4.16,2.4 L 1,20.4 c 0.36,0.28 0.64,0.32 1.28,0.32 h 12.88 c 0.68,0 0.96,-0.04 1.28,-0.32 l 1.04,6.72 c -1.16,-2.04 -3.24,-2.4 -4.2,-2.4 z m 24.181,5.4 c 0.2,13.6 -18.12,13.68 -17.96,0.08 0.08,-9.56 9.36,-12.2 14.56,-7.92 0.84,0.64 1.12,1.44 0.88,2.32 0.36,0.04 0.96,-0.4 1.52,0.84 0.6,1.28 0.96,2.88 1,4.68 z m -13.64,-0.08 c -0.28,7.84 9.4,8 9.32,0.24 0,-0.92 -0.16,-1.76 -0.4,-2.44 -0.88,0.4 -1.72,0.4 -1.88,0.2 1.08,-1.16 0.84,-2.32 -0.56,-2.96 -2.72,-1.32 -6.36,0.32 -6.48,4.96 z m 31.101,-9.2 -2.72,6.36 c -0.08,-1.88 -1.72,-2.6 -3.84,-2.52 -6.24,0.28 -6.12,11.28 0.16,11.36 2.04,0.04 2.88,-1.56 2.72,-3.12 -2.4,-0.24 -3.68,-1.8 -3,-4.24 2.56,1.48 6.8,0.88 11.44,0.04 v -5.6 c 0,-1.12 -1.24,-2.16 -2.28,-2.36 l 13.6,-0.04 c 0.64,0 0.96,-0.04 1.28,-0.32 l 1,6.72 c -1.12,-2.04 -3.24,-2.4 -4.16,-2.4 h -5.04 V 28 c 3.84,-0.6 6.56,0.32 5.56,4.8 -1.08,-0.8 -3.12,-0.92 -5.56,-0.76 V 36 h 5.04 c 0.92,0 3.04,-0.36 4.16,-2.4 l -0.96,6.4 h -14.92 c 1.04,-0.2 2.28,-1.24 2.28,-2.4 v -5.12 c -1.4,0.16 -2.88,0.32 -4.24,0.44 0.16,2.4 -0.36,8.4 1.28,8.84 -1,0 -4.4,0.12 -5,-2.2 -1.08,0.48 -2.2,0.6 -3.32,0.6 -11.84,0 -11.88,-19.24 -0.16,-19.76 1.04,-0.04 2.12,0.12 3.2,0.48 1.56,0.48 2.32,0.64 3.48,-0.04 z m 33.621,3.88 h -2.36 v 12.84 c 0,1.2 1.2,2.24 2.32,2.44 h -9 c 1.04,-0.2 2.32,-1.24 2.32,-2.4 V 24.72 h -2.4 c -0.92,0 -3,0.36 -4.16,2.4 l 1,-6.72 c 0.36,0.28 0.64,0.32 1.28,0.32 h 12.88 c 0.68,0 0.96,-0.04 1.28,-0.32 l 1.04,6.72 c -1.16,-2.04 -3.24,-2.4 -4.2,-2.4 z M 128.644,36 c 0.92,0 3,-0.36 4.16,-2.4 l -0.96,6.4 h -14.96 c 1.08,-0.2 2.32,-1.24 2.32,-2.4 v -5 c -1.84,0.32 -3.76,0.68 -5.76,1.08 v 3.88 c 0,1.2 1.24,2.24 2.32,2.44 h -9 c 1.08,-0.2 2.32,-1.24 2.32,-2.4 v -3.08 c -2.8,0.52 -5.48,0.96 -7.68,1.04 v 2 c 0,1.2 1.2,2.24 2.32,2.44 h -9 c 1.04,-0.2 2.32,-1.24 2.32,-2.4 v -2.8 c -1.08,-0.84 -1.76,-2.4 -1.44,-3.4 0.36,0.24 0.88,0.36 1.44,0.48 v -8.76 c 0,-1.12 -1.28,-2.2 -2.32,-2.4 h 9 c -1.12,0.24 -2.32,1.28 -2.32,2.44 v 8.72 c 2.28,-0.24 4.96,-0.72 7.68,-1.24 v -7.52 c 0,-1.12 -1.24,-2.2 -2.32,-2.4 h 9 c -1.08,0.24 -2.32,1.28 -2.32,2.44 v 6.52 l 5.76,-1.24 v -5.32 c 0,-1.12 -1.24,-2.2 -2.32,-2.4 h 13.64 c 0.64,0 0.92,-0.04 1.24,-0.32 l 1.04,6.72 c -1.16,-2.04 -3.24,-2.4 -4.16,-2.4 h -5.04 v 3.08 c 3.64,-0.48 5.6,1.04 4.68,4.88 -0.96,-0.6 -2.64,-0.76 -4.68,-0.6 V 36 Z m 18.661,-2.68 c 1.12,2.36 2.28,4.88 5.4,4.44 -1.04,2.96 -4.16,3.84 -6.36,2.04 -1.32,-1.08 -2.32,-3.48 -3.28,-5.16 -0.52,0.12 -1.08,0.2 -1.6,0.28 v 2.64 c 0,1.2 1.2,2.24 2.32,2.44 h -9 c 1.04,-0.2 2.32,-1.24 2.32,-2.4 V 23.12 c 0,-1.12 -1.28,-2.16 -2.32,-2.36 h 10.16 c 8.08,0 10,8.96 2.36,12.56 z m -2.4,-3.04 c 4.12,-1.64 3.64,-6.04 -0.36,-6.04 h -3.08 v 6.8 c 1.12,-0.12 2.36,-0.32 3.44,-0.76 z"
       id="path10" />
  </g>
  <g
     id="SvgjsG2233"
     featurekey="sloganFeature-0"
     transform="matrix(2.0916825,0,0,2.0638819,44.907109,163.42032)"
     fill="#ffffff">
    <path
       d="M 5.86,12.36 H 3.34 v 2.02 C 5.02,13.44 6.26,13.28 6.6,15.56 5.96,15.22 4.52,16 3.34,16.66 v 2.12 c 0,0.6 0.6,1.12 1.16,1.22 H 0 C 0.52,19.9 1.16,19.38 1.16,18.8 V 11.56 C 1.16,11 0.52,10.48 0,10.38 l 6.8,-0.02 c 0.32,0 0.48,-0.02 0.64,-0.16 l 0.5,3.36 c -0.56,-1.02 -1.6,-1.2 -2.08,-1.2 z m 10.1115,4.3 c 0.56,1.18 1.14,2.44 2.7,2.22 -0.52,1.48 -2.08,1.92 -3.18,1.02 -0.66,-0.54 -1.16,-1.74 -1.64,-2.58 -0.26,0.06 -0.54,0.1 -0.8,0.14 v 1.32 c 0,0.6 0.6,1.12 1.16,1.22 h -4.5 c 0.52,-0.1 1.16,-0.62 1.16,-1.2 v -7.24 c 0,-0.56 -0.64,-1.08 -1.16,-1.18 h 5.08 c 4.04,0 5,4.48 1.18,6.28 z m -1.2,-1.52 c 2.06,-0.82 1.82,-3.02 -0.18,-3.02 h -1.54 v 3.4 c 0.56,-0.06 1.18,-0.16 1.72,-0.38 z M 26.303,12.36 h -2.52 v 2.02 c 1.68,-0.94 2.92,-1.1 3.26,1.18 -0.64,-0.34 -2.08,0.44 -3.26,1.1 V 18 h 2.52 c 0.48,0 1.52,-0.18 2.08,-1.2 l -0.48,3.2 h -7.46 c 0.52,-0.1 1.16,-0.62 1.16,-1.2 v -7.24 c 0,-0.56 -0.64,-1.1 -1.16,-1.2 h 6.8 c 0.32,0 0.48,-0.02 0.64,-0.16 l 0.5,3.36 c -0.56,-1.02 -1.6,-1.2 -2.08,-1.2 z m 9.7115,0 h -2.52 v 2.02 c 1.68,-0.94 2.92,-1.1 3.26,1.18 -0.64,-0.34 -2.08,0.44 -3.26,1.1 V 18 h 2.52 c 0.48,0 1.52,-0.18 2.08,-1.2 l -0.48,3.2 h -7.46 c 0.52,-0.1 1.16,-0.62 1.16,-1.2 v -7.24 c 0,-0.56 -0.64,-1.1 -1.16,-1.2 h 6.8 c 0.32,0 0.48,-0.02 0.64,-0.16 l 0.5,3.36 c -0.56,-1.02 -1.6,-1.2 -2.08,-1.2 z m 14.883,0 h -2.52 v 2.02 c 1.68,-0.94 2.92,-1.1 3.26,1.18 -0.64,-0.34 -2.08,0.44 -3.26,1.1 v 2.12 c 0,0.6 0.6,1.12 1.16,1.22 h -4.5 c 0.52,-0.1 1.16,-0.62 1.16,-1.2 v -7.24 c 0,-0.56 -0.64,-1.08 -1.16,-1.18 l 6.8,-0.02 c 0.32,0 0.48,-0.02 0.64,-0.16 l 0.5,3.36 c -0.56,-1.02 -1.6,-1.2 -2.08,-1.2 z m 12.8515,2.7 c 0.1,6.8 -9.06,6.84 -8.98,0.04 0.04,-4.78 4.68,-6.1 7.28,-3.96 0.42,0.32 0.56,0.72 0.44,1.16 0.18,0.02 0.48,-0.2 0.76,0.42 0.3,0.64 0.48,1.44 0.5,2.34 z m -6.82,-0.04 c -0.14,3.92 4.7,4 4.66,0.12 0,-0.46 -0.08,-0.88 -0.2,-1.22 -0.44,0.2 -0.86,0.2 -0.94,0.1 0.54,-0.58 0.42,-1.16 -0.28,-1.48 -1.36,-0.66 -3.18,0.16 -3.24,2.48 z m 14.8715,1.64 c 0.56,1.18 1.14,2.44 2.7,2.22 -0.52,1.48 -2.08,1.92 -3.18,1.02 -0.66,-0.54 -1.16,-1.74 -1.64,-2.58 -0.26,0.06 -0.54,0.1 -0.8,0.14 v 1.32 c 0,0.6 0.6,1.12 1.16,1.22 h -4.5 c 0.52,-0.1 1.16,-0.62 1.16,-1.2 v -7.24 c 0,-0.56 -0.64,-1.08 -1.16,-1.18 h 5.08 c 4.04,0 5,4.48 1.18,6.28 z m -1.2,-1.52 c 2.06,-0.82 1.82,-3.02 -0.18,-3.02 h -1.54 v 3.4 c 0.56,-0.06 1.18,-0.16 1.72,-0.38 z m 15.843,-3.3 -0.9,4 c 0.7,0.18 1.3,0.38 1.8,0.44 z m -1.36,6.02 -0.2,0.92 c -0.14,0.6 0.18,1.12 0.7,1.22 h -4.14 c 0.56,-0.1 1.14,-0.7 1.24,-1.2 l 0.26,-1.14 c -0.32,0.02 -0.6,0.12 -0.78,0.3 -0.2,-1.14 -0.06,-2.24 1.26,-2.4 l 0.9,-4 c 0.14,-0.56 0.06,-1.08 -0.44,-1.18 h 5.18 c -0.5,0.1 -0.6,0.62 -0.48,1.18 0.48,2.42 0.96,4.84 1.44,7.24 0.1,0.5 0.68,1.1 1.22,1.2 h -4.14 c 0.52,-0.1 0.84,-0.62 0.72,-1.22 l -0.08,-0.48 c -0.6,0.02 -1.62,-0.24 -2.66,-0.44 z M 96.355,18 h 2.2 c 0.82,0 1.74,-0.56 2.32,-1.6 l -0.7,3.6 h -7.16 c 0.52,-0.1 1.16,-0.62 1.16,-1.2 v -7.24 c 0,-0.58 -0.64,-1.1 -1.16,-1.2 h 4.5 c -0.56,0.12 -1.16,0.64 -1.16,1.22 z m 9.6315,0 h 2.2 c 0.82,0 1.74,-0.56 2.32,-1.6 l -0.7,3.6 h -7.16 c 0.52,-0.1 1.16,-0.62 1.16,-1.2 v -7.24 c 0,-0.58 -0.64,-1.1 -1.16,-1.2 h 4.5 c -0.56,0.12 -1.16,0.64 -1.16,1.22 z"
       id="path13" />
  </g>
</svg>